<svg xmlns="http://www.w3.org/2000/svg" viewBox="0 0 851.6 851.6"><defs><style>.cls-1{fill:#f0f0f0;}.cls-2{fill:#39a2a5;}.cls-3{fill:#c7f8cb;}.cls-4{fill:#22577a;}.cls-5{fill:none;}.cls-6{fill:#57cc98;}</style></defs><g id="Capa_2" data-name="Capa 2"><g id="Layer_1" data-name="Layer 1"><path class="cls-1" d="M551.02,832.89a422.194,422.194,0,0,1-55.97,13.1,430.48,430.48,0,0,1-126.79,1.75,422.8,422.8,0,0,1-98.54-25.65q11-28.875,20.42-58.5a1104.588,1104.588,0,0,0,35.2-143.2,691.552,691.552,0,0,0,225.68,212.5Z"/><path class="cls-2" d="M605.37,94.1q-4.8.36-9.57.85a32.111,32.111,0,0,1,7.65-.91Q604.425,94.04,605.37,94.1Z"/><path class="cls-2" d="M701.78,426.42a98.33,98.33,0,1,1-98.33-98.32A98.325,98.325,0,0,1,701.78,426.42Z"/><path class="cls-1" d="M211.23,425.8a1113.425,1113.425,0,0,1-50.67,333.1C62.71,680.9,0,560.68,0,425.8S62.71,170.7,160.56,92.7A1113.425,1113.425,0,0,1,211.23,425.8Z"/><path class="cls-3" d="M290.14,763.59q-9.42,29.61-20.42,58.5A425.061,425.061,0,0,1,160.56,758.9a1113.425,1113.425,0,0,0,50.67-333.1A1113.425,1113.425,0,0,0,160.56,92.7,425.174,425.174,0,0,1,237.8,43.65a692.845,692.845,0,0,0-8.73,357.47,426.774,426.774,0,0,0,61.07,362.47Z"/><path class="cls-4" d="M701.78,426.42a98.33,98.33,0,1,1-98.33-98.32A98.325,98.325,0,0,1,701.78,426.42Z"/><path class="cls-2" d="M325.34,620.39a1104.588,1104.588,0,0,1-35.2,143.2,426.774,426.774,0,0,1-61.07-362.47A684.443,684.443,0,0,0,325.34,620.39Z"/><path class="cls-5" d="M701.78,426.42a98.33,98.33,0,1,1-98.33-98.32A98.325,98.325,0,0,1,701.78,426.42Z"/><path class="cls-5" d="M705.33,98.06q-3.255.465-6.49,1.01c-.95-.81-1.91-1.6-2.88-2.38Q700.67,97.305,705.33,98.06Z"/><path class="cls-5" d="M701.78,426.42a98.33,98.33,0,1,1-98.33-98.32A98.325,98.325,0,0,1,701.78,426.42Z"/><path class="cls-1" d="M698.84,99.07c-.95-.81-1.91-1.6-2.88-2.38A423.919,423.919,0,0,0,425.8,0q-12.06,0-23.97.67A423.558,423.558,0,0,0,269.72,29.52a1105.13,1105.13,0,0,1,55.46,200.73q10.485-11.4,21.81-22.04A424.248,424.248,0,0,1,595.76,94.95c.01,0,.02-.01.04,0a32.111,32.111,0,0,1,7.65-.91q.975,0,1.92.06h.02a32.686,32.686,0,0,1,28.59,20.92,420.463,420.463,0,0,0-60.27,25.3c-106.25,54.6-186.55,152.59-217.49,270.56,31.62,162.07,120.16,303.79,243.96,403.49C748.39,747.75,851.6,598.83,851.6,425.8,851.6,294.55,792.21,177.17,698.84,99.07ZM603.45,524.75a98.325,98.325,0,1,1,98.33-98.33A98.325,98.325,0,0,1,603.45,524.75Z"/><path class="cls-5" d="M605.37,94.1q-4.8.36-9.57.85a32.111,32.111,0,0,1,7.65-.91Q604.425,94.04,605.37,94.1Z"/><path class="cls-6" d="M325.18,230.25a425.081,425.081,0,0,0-96.11,170.87A692.845,692.845,0,0,1,237.8,43.65q15.615-7.695,31.92-14.13A1105.13,1105.13,0,0,1,325.18,230.25Z"/><path class="cls-6" d="M600.18,814.37a423.127,423.127,0,0,1-49.16,18.52A691.19,691.19,0,0,1,377.25,688.48a427.622,427.622,0,0,1-21.03-277.6C387.84,572.95,476.38,714.67,600.18,814.37Z"/><path class="cls-6" d="M325.34,620.39A1120.1,1120.1,0,0,0,342.29,425.8a1121.023,1121.023,0,0,0-17.11-195.55q10.485-11.4,21.81-22.04a698.168,698.168,0,0,0-3.53,70.17,690.314,690.314,0,0,0,12.76,132.5,427.622,427.622,0,0,0,21.03,277.6A692.344,692.344,0,0,1,325.34,620.39Z"/><path class="cls-2" d="M342.29,425.8a1120.1,1120.1,0,0,1-16.95,194.59,684.443,684.443,0,0,1-96.27-219.27,425.081,425.081,0,0,1,96.11-170.87A1121.023,1121.023,0,0,1,342.29,425.8Z"/><path class="cls-5" d="M605.37,94.1q-4.8.36-9.57.85a32.111,32.111,0,0,1,7.65-.91Q604.425,94.04,605.37,94.1Z"/><path class="cls-5" d="M701.78,426.42a98.33,98.33,0,1,1-98.33-98.32A98.325,98.325,0,0,1,701.78,426.42Z"/><path class="cls-5" d="M705.33,98.06q-3.255.465-6.49,1.01c-.95-.81-1.91-1.6-2.88-2.38Q700.67,97.305,705.33,98.06Z"/><path class="cls-2" d="M633.98,115.02a420.463,420.463,0,0,0-60.27,25.3c-106.25,54.6-186.55,152.59-217.49,270.56a690.314,690.314,0,0,1-12.76-132.5,698.168,698.168,0,0,1,3.53-70.17A424.248,424.248,0,0,1,595.76,94.95c.01,0,.02-.01.04,0q4.77-.495,9.57-.85h.02A32.686,32.686,0,0,1,633.98,115.02Z"/><path class="cls-5" d="M605.37,94.1q-4.8.36-9.57.85a32.111,32.111,0,0,1,7.65-.91Q604.425,94.04,605.37,94.1Z"/><path class="cls-5" d="M701.78,426.42a98.33,98.33,0,1,1-98.33-98.32A98.325,98.325,0,0,1,701.78,426.42Z"/><path class="cls-5" d="M705.33,98.06q-3.255.465-6.49,1.01c-.95-.81-1.91-1.6-2.88-2.38Q700.67,97.305,705.33,98.06Z"/></g></g></svg>